<svg version="1.2" xmlns="http://www.w3.org/2000/svg" viewBox="0 0 1024 1076" width="1024" height="1076">
	<title>logo</title>
	<style>
		.s0 { fill: #ffb500 } 
	</style>
	<path id="Forma 2" class="s0" d="m504 474.9c0 0-22.2-1.3-31 21.2l-187.2-117.4c0 0-7.5-4.8-1.5-12.9 0 0 3.7-7.6 12.8-1.8l65.1 42.8c0 0 10.3 5.1 15.9-5.9 0 0 45.6-87.4 125.9-83.8v155.5z"/>
	<path id="Forma 2 copy" class="s0" d="m504 474.6c0 0 22.2-1.3 31 21.2l274.9-170.3c0 0 5.7-6.5-0.3-14.6 0 0-5.6-7.5-14.7-1.7l-149 97.3c0 0-10.3 5.1-16-5.9 0 0-45.5-87.4-125.9-83.8v155.4z"/>
	<path id="Camada 1" class="s0" d="m488 1062c0 0-206.2-6.7-219-47v-59c0 0-5.1-17.3 66.5-49.6 0 0 18.8-8 15.5-18.4 0 0-4.3-36.5 30.1-43.8 0 0 70.3-73.7 32.9-195.2 0 0-99.1-77.8-52.5-207.9l111.5 69.9c0 0 4 25.3 30 26.4v524.9z"/>
	<path id="Camada 1 copy" class="s0" d="m518 1062c0 0 206.2-6.7 219-47v-59c0 0 5.1-17.3-66.5-49.6 0 0-18.8-8-15.5-18.4 0 0 4.3-36.5-30.1-43.8 0 0-70.3-73.7-32.9-195.2 0 0 102.9-80.9 56.3-211.1l-115.3 73.1c0 0-4 25.3-30 26.4v524.9z"/>
	<g id="Pasta 1">
		<path id="Camada 2" class="s0" d="m760 893c-10 0-18-8-18-18 0-10 8-18 18-18 10 0 18 8 18 18 0 10-8 18-18 18z"/>
		<path id="Camada 2 copy" class="s0" d="m925 744c-10 0-18-8-18-18 0-10 8-18 18-18 10 0 18 8 18 18 0 10-8 18-18 18z"/>
		<path id="Camada 2 copy 2" class="s0" d="m980 518c-10 0-18-8-18-18 0-10 8-18 18-18 10 0 18 8 18 18 0 10-8 18-18 18z"/>
		<path id="Camada 2 copy 3" class="s0" d="m928 289c-10 0-18-8-18-18 0-10 8-18 18-18 10 0 18 8 18 18 0 10-8 18-18 18z"/>
		<path id="Camada 2 copy 4" class="s0" d="m756 108c-10 0-18-8-18-18 0-10 8-18 18-18 10 0 18 8 18 18 0 10-8 18-18 18z"/>
		<path id="Camada 2 copy 6" class="s0" d="m512 56c-10 0-18-8-18-18 0-10 8-18 18-18 10 0 18 8 18 18 0 10-8 18-18 18z"/>
		<path id="Camada 2 copy 7" class="s0" d="m268 108c-10 0-18-8-18-18 0-10 8-18 18-18 10 0 18 8 18 18 0 10-8 18-18 18z"/>
		<path id="Camada 2 copy 8" class="s0" d="m102 290c-10 0-18-8-18-18 0-10 8-18 18-18 10 0 18 8 18 18 0 10-8 18-18 18z"/>
		<path id="Camada 2 copy 9" class="s0" d="m48 519c-10 0-18-8-18-18 0-10 8-18 18-18 10 0 18 8 18 18 0 10-8 18-18 18z"/>
		<path id="Camada 2 copy 10" class="s0" d="m107 743c-10 0-18-8-18-18 0-10 8-18 18-18 10 0 18 8 18 18 0 10-8 18-18 18z"/>
		<path id="Camada 2 copy 11" class="s0" d="m271 892c-10 0-18-8-18-18 0-10 8-18 18-18 10 0 18 8 18 18 0 10-8 18-18 18z"/>
	</g>
</svg>